<mxfile host="app.diagrams.net" agent="Mozilla/5.0 (Windows NT 10.0; Win64; x64) AppleWebKit/537.36 (KHTML, like Gecko) Chrome/140.0.0.0 Safari/537.36" version="28.2.5">
  <diagram name="Página-1" id="plLOUN3M6H8fUQBdUBBy">
    <mxGraphModel dx="1202" dy="1428" grid="1" gridSize="10" guides="1" tooltips="1" connect="1" arrows="1" fold="1" page="1" pageScale="1" pageWidth="1169" pageHeight="827" math="0" shadow="0">
      <root>
        <mxCell id="0" />
        <mxCell id="1" parent="0" />
        <mxCell id="EY71eygcpZmccbt1ihIs-49" value="" style="edgeStyle=orthogonalEdgeStyle;rounded=0;orthogonalLoop=1;jettySize=auto;html=1;fontFamily=Helvetica;fontSize=12;fontColor=default;" parent="1" source="EY71eygcpZmccbt1ihIs-33" target="EY71eygcpZmccbt1ihIs-48" edge="1">
          <mxGeometry relative="1" as="geometry">
            <Array as="points">
              <mxPoint x="154" y="-800" />
            </Array>
          </mxGeometry>
        </mxCell>
        <mxCell id="EY71eygcpZmccbt1ihIs-33" value="Postagem Inicial" style="whiteSpace=wrap;html=1;aspect=fixed;align=center;verticalAlign=middle;fontFamily=Helvetica;fontSize=12;fillColor=none;rounded=1;glass=0;rotation=0;" parent="1" vertex="1">
          <mxGeometry x="114" y="-771" width="70" height="30" as="geometry" />
        </mxCell>
        <mxCell id="MfQgQM3FMBS9YXk90TeN-14" style="edgeStyle=orthogonalEdgeStyle;rounded=0;orthogonalLoop=1;jettySize=auto;html=1;exitX=0;exitY=0.75;exitDx=0;exitDy=0;entryX=0.25;entryY=1;entryDx=0;entryDy=0;" parent="1" source="EY71eygcpZmccbt1ihIs-43" target="EY71eygcpZmccbt1ihIs-48" edge="1">
          <mxGeometry relative="1" as="geometry" />
        </mxCell>
        <mxCell id="EY71eygcpZmccbt1ihIs-43" value="Revisão" style="whiteSpace=wrap;html=1;aspect=fixed;align=center;verticalAlign=middle;fontFamily=Helvetica;fontSize=12;fillColor=none;rounded=1;glass=0;rotation=0;" parent="1" vertex="1">
          <mxGeometry x="284" y="-771" width="70" height="30" as="geometry" />
        </mxCell>
        <mxCell id="MfQgQM3FMBS9YXk90TeN-15" style="edgeStyle=orthogonalEdgeStyle;rounded=0;orthogonalLoop=1;jettySize=auto;html=1;exitX=0.75;exitY=1;exitDx=0;exitDy=0;entryX=0;entryY=0.25;entryDx=0;entryDy=0;" parent="1" source="EY71eygcpZmccbt1ihIs-48" target="EY71eygcpZmccbt1ihIs-43" edge="1">
          <mxGeometry relative="1" as="geometry" />
        </mxCell>
        <mxCell id="UfoDBixBIE4lNrS8R6d3-3" style="edgeStyle=orthogonalEdgeStyle;rounded=0;orthogonalLoop=1;jettySize=auto;html=1;exitX=1;exitY=0.5;exitDx=0;exitDy=0;entryX=0;entryY=0.5;entryDx=0;entryDy=0;" edge="1" parent="1" source="EY71eygcpZmccbt1ihIs-48" target="EY71eygcpZmccbt1ihIs-53">
          <mxGeometry relative="1" as="geometry" />
        </mxCell>
        <mxCell id="EY71eygcpZmccbt1ihIs-48" value="Verificão" style="whiteSpace=wrap;html=1;aspect=fixed;align=center;verticalAlign=middle;fontFamily=Helvetica;fontSize=12;fillColor=none;rounded=1;glass=0;rotation=0;" parent="1" vertex="1">
          <mxGeometry x="184" y="-820" width="70" height="30" as="geometry" />
        </mxCell>
        <mxCell id="MfQgQM3FMBS9YXk90TeN-16" style="edgeStyle=orthogonalEdgeStyle;rounded=0;orthogonalLoop=1;jettySize=auto;html=1;exitX=0.5;exitY=1;exitDx=0;exitDy=0;entryX=0.5;entryY=0;entryDx=0;entryDy=0;" parent="1" source="EY71eygcpZmccbt1ihIs-53" target="EY71eygcpZmccbt1ihIs-43" edge="1">
          <mxGeometry relative="1" as="geometry" />
        </mxCell>
        <mxCell id="UfoDBixBIE4lNrS8R6d3-4" style="edgeStyle=orthogonalEdgeStyle;rounded=0;orthogonalLoop=1;jettySize=auto;html=1;exitX=1;exitY=0.5;exitDx=0;exitDy=0;entryX=0;entryY=0.5;entryDx=0;entryDy=0;" edge="1" parent="1" source="EY71eygcpZmccbt1ihIs-53" target="EY71eygcpZmccbt1ihIs-55">
          <mxGeometry relative="1" as="geometry" />
        </mxCell>
        <mxCell id="EY71eygcpZmccbt1ihIs-53" value="Aprovação" style="whiteSpace=wrap;html=1;aspect=fixed;align=center;verticalAlign=middle;fontFamily=Helvetica;fontSize=12;fillColor=none;rounded=1;glass=0;rotation=0;" parent="1" vertex="1">
          <mxGeometry x="284" y="-820" width="70" height="30" as="geometry" />
        </mxCell>
        <mxCell id="UfoDBixBIE4lNrS8R6d3-5" style="edgeStyle=orthogonalEdgeStyle;rounded=0;orthogonalLoop=1;jettySize=auto;html=1;exitX=1;exitY=0.5;exitDx=0;exitDy=0;" edge="1" parent="1" source="EY71eygcpZmccbt1ihIs-55" target="EY71eygcpZmccbt1ihIs-60">
          <mxGeometry relative="1" as="geometry" />
        </mxCell>
        <mxCell id="EY71eygcpZmccbt1ihIs-55" value="Emessão" style="whiteSpace=wrap;html=1;aspect=fixed;align=center;verticalAlign=middle;fontFamily=Helvetica;fontSize=12;fillColor=none;rounded=1;glass=0;rotation=0;" parent="1" vertex="1">
          <mxGeometry x="384" y="-820" width="70" height="30" as="geometry" />
        </mxCell>
        <mxCell id="EY71eygcpZmccbt1ihIs-62" style="edgeStyle=orthogonalEdgeStyle;rounded=0;orthogonalLoop=1;jettySize=auto;html=1;exitX=0.5;exitY=1;exitDx=0;exitDy=0;entryX=1;entryY=0.25;entryDx=0;entryDy=0;fontFamily=Helvetica;fontSize=12;fontColor=default;" parent="1" source="EY71eygcpZmccbt1ihIs-60" target="EY71eygcpZmccbt1ihIs-43" edge="1">
          <mxGeometry relative="1" as="geometry" />
        </mxCell>
        <mxCell id="UfoDBixBIE4lNrS8R6d3-7" style="edgeStyle=orthogonalEdgeStyle;rounded=0;orthogonalLoop=1;jettySize=auto;html=1;exitX=1;exitY=0.5;exitDx=0;exitDy=0;entryX=0;entryY=0.5;entryDx=0;entryDy=0;" edge="1" parent="1" source="EY71eygcpZmccbt1ihIs-60" target="EY71eygcpZmccbt1ihIs-63">
          <mxGeometry relative="1" as="geometry" />
        </mxCell>
        <mxCell id="EY71eygcpZmccbt1ihIs-60" value="Comentários Cliente" style="whiteSpace=wrap;html=1;aspect=fixed;align=center;verticalAlign=middle;fontFamily=Helvetica;fontSize=12;fillColor=none;rounded=1;glass=0;rotation=0;" parent="1" vertex="1">
          <mxGeometry x="484" y="-820" width="70" height="30" as="geometry" />
        </mxCell>
        <mxCell id="EY71eygcpZmccbt1ihIs-65" style="edgeStyle=orthogonalEdgeStyle;rounded=0;orthogonalLoop=1;jettySize=auto;html=1;exitX=0.5;exitY=1;exitDx=0;exitDy=0;entryX=1;entryY=0.5;entryDx=0;entryDy=0;fontFamily=Helvetica;fontSize=12;fontColor=default;" parent="1" source="EY71eygcpZmccbt1ihIs-63" target="EY71eygcpZmccbt1ihIs-43" edge="1">
          <mxGeometry relative="1" as="geometry" />
        </mxCell>
        <mxCell id="UfoDBixBIE4lNrS8R6d3-8" style="edgeStyle=orthogonalEdgeStyle;rounded=0;orthogonalLoop=1;jettySize=auto;html=1;exitX=1;exitY=0.5;exitDx=0;exitDy=0;entryX=0;entryY=0.5;entryDx=0;entryDy=0;" edge="1" parent="1" source="EY71eygcpZmccbt1ihIs-63" target="EY71eygcpZmccbt1ihIs-66">
          <mxGeometry relative="1" as="geometry" />
        </mxCell>
        <mxCell id="EY71eygcpZmccbt1ihIs-63" value="Análise Cliente" style="whiteSpace=wrap;html=1;aspect=fixed;align=center;verticalAlign=middle;fontFamily=Helvetica;fontSize=12;fillColor=none;rounded=1;glass=0;rotation=0;" parent="1" vertex="1">
          <mxGeometry x="584" y="-820" width="70" height="30" as="geometry" />
        </mxCell>
        <mxCell id="UfoDBixBIE4lNrS8R6d3-9" style="edgeStyle=orthogonalEdgeStyle;rounded=0;orthogonalLoop=1;jettySize=auto;html=1;exitX=1;exitY=0.5;exitDx=0;exitDy=0;entryX=0;entryY=0.5;entryDx=0;entryDy=0;" edge="1" parent="1" source="EY71eygcpZmccbt1ihIs-66" target="EY71eygcpZmccbt1ihIs-68">
          <mxGeometry relative="1" as="geometry" />
        </mxCell>
        <mxCell id="EY71eygcpZmccbt1ihIs-66" value="Comentários Proprietário" style="whiteSpace=wrap;html=1;aspect=fixed;align=center;verticalAlign=middle;fontFamily=Helvetica;fontSize=12;fillColor=none;rounded=1;glass=0;rotation=0;" parent="1" vertex="1">
          <mxGeometry x="684" y="-820" width="70" height="30" as="geometry" />
        </mxCell>
        <mxCell id="MfQgQM3FMBS9YXk90TeN-17" style="edgeStyle=orthogonalEdgeStyle;rounded=0;orthogonalLoop=1;jettySize=auto;html=1;exitX=0.5;exitY=1;exitDx=0;exitDy=0;entryX=1;entryY=0.75;entryDx=0;entryDy=0;" parent="1" source="EY71eygcpZmccbt1ihIs-68" target="EY71eygcpZmccbt1ihIs-43" edge="1">
          <mxGeometry relative="1" as="geometry" />
        </mxCell>
        <mxCell id="MfQgQM3FMBS9YXk90TeN-21" style="edgeStyle=orthogonalEdgeStyle;rounded=0;orthogonalLoop=1;jettySize=auto;html=1;exitX=1;exitY=0.5;exitDx=0;exitDy=0;entryX=0;entryY=0.5;entryDx=0;entryDy=0;" parent="1" source="EY71eygcpZmccbt1ihIs-68" target="EY71eygcpZmccbt1ihIs-71" edge="1">
          <mxGeometry relative="1" as="geometry" />
        </mxCell>
        <mxCell id="EY71eygcpZmccbt1ihIs-68" value="Análise Técnica" style="whiteSpace=wrap;html=1;aspect=fixed;align=center;verticalAlign=middle;fontFamily=Helvetica;fontSize=12;fillColor=none;rounded=1;glass=0;rotation=0;" parent="1" vertex="1">
          <mxGeometry x="784" y="-820" width="70" height="30" as="geometry" />
        </mxCell>
        <mxCell id="EY71eygcpZmccbt1ihIs-76" value="" style="edgeStyle=orthogonalEdgeStyle;rounded=0;orthogonalLoop=1;jettySize=auto;html=1;fontFamily=Helvetica;fontSize=12;fontColor=default;" parent="1" source="EY71eygcpZmccbt1ihIs-71" target="EY71eygcpZmccbt1ihIs-75" edge="1">
          <mxGeometry relative="1" as="geometry" />
        </mxCell>
        <mxCell id="EY71eygcpZmccbt1ihIs-71" value="Revisão Aprovado" style="whiteSpace=wrap;html=1;aspect=fixed;align=center;verticalAlign=middle;fontFamily=Helvetica;fontSize=12;fillColor=none;rounded=1;glass=0;rotation=0;" parent="1" vertex="1">
          <mxGeometry x="884" y="-820" width="70" height="30" as="geometry" />
        </mxCell>
        <mxCell id="UfoDBixBIE4lNrS8R6d3-10" style="edgeStyle=orthogonalEdgeStyle;rounded=0;orthogonalLoop=1;jettySize=auto;html=1;exitX=0.5;exitY=1;exitDx=0;exitDy=0;entryX=0.5;entryY=0;entryDx=0;entryDy=0;" edge="1" parent="1" source="EY71eygcpZmccbt1ihIs-75" target="EY71eygcpZmccbt1ihIs-77">
          <mxGeometry relative="1" as="geometry" />
        </mxCell>
        <mxCell id="EY71eygcpZmccbt1ihIs-75" value="Emissão Aprovado" style="whiteSpace=wrap;html=1;aspect=fixed;align=center;verticalAlign=middle;fontFamily=Helvetica;fontSize=12;fillColor=none;rounded=1;glass=0;rotation=0;" parent="1" vertex="1">
          <mxGeometry x="984" y="-820" width="70" height="30" as="geometry" />
        </mxCell>
        <mxCell id="EY71eygcpZmccbt1ihIs-77" value="Postagem Concluída" style="whiteSpace=wrap;html=1;aspect=fixed;align=center;verticalAlign=middle;fontFamily=Helvetica;fontSize=12;fillColor=none;rounded=1;glass=0;rotation=0;" parent="1" vertex="1">
          <mxGeometry x="984" y="-771" width="70" height="30" as="geometry" />
        </mxCell>
      </root>
    </mxGraphModel>
  </diagram>
</mxfile>
